<svg width="196" height="28" viewBox="0 0 196 28" fill="none" xmlns="http://www.w3.org/2000/svg">
<path d="M0.33 3.51C0.33 2.65 0.96 2.22 2.22 2.22C2.76 2.22 3.79 2.24 5.31 2.28C6.99 2.36 8.26 2.4 9.12 2.4C9.82 2.4 10.67 2.36 11.67 2.28C12.35 2.24 12.78 2.22 12.96 2.22C14.06 2.26 14.99 2.46 15.75 2.82C15.97 2.92 16.15 3.04 16.29 3.18C16.43 3.32 16.5 3.55 16.5 3.87C16.5 4.31 16.36 4.69 16.08 5.01C15.8 5.31 15.46 5.46 15.06 5.46C14.62 5.46 13.98 5.4 13.14 5.28C12.4 5.14 11.75 5.07 11.19 5.07C10.65 5.07 10.24 5.08 9.96 5.1C9.9 5.76 9.87 7.34 9.87 9.84C9.87 12.82 9.96 15.84 10.14 18.9L10.2 19.77C10.2 20.59 9.73 21 8.79 21C8.05 21 7.55 20.83 7.29 20.49C7.03 20.13 6.9 19.59 6.9 18.87C6.9 17.45 6.86 15.68 6.78 13.56C6.7 11.8 6.66 10.55 6.66 9.81C6.66 9.31 6.72 7.78 6.84 5.22L3.33 5.25C2.21 5.25 1.43 5.15 0.99 4.95C0.55 4.73 0.33 4.25 0.33 3.51ZM20.6784 19.8C20.6784 20.14 20.5484 20.44 20.2884 20.7C20.0284 20.96 19.7084 21.09 19.3284 21.09C18.7284 21.09 18.2884 20.98 18.0084 20.76C17.7284 20.52 17.5884 20.09 17.5884 19.47C17.5884 18.73 17.5684 17.76 17.5284 16.56C17.4884 15.56 17.4684 14.72 17.4684 14.04C17.4684 13.72 17.4884 13.3 17.5284 12.78C17.5684 12.3 17.5884 11.94 17.5884 11.7C17.5284 11.32 17.3784 11.01 17.1384 10.77C16.8984 10.51 16.5884 10.38 16.2084 10.38C16.0284 10.38 15.8784 10.3 15.7584 10.14C15.6384 9.96 15.5784 9.78 15.5784 9.6C15.5784 9.14 15.7584 8.79 16.1184 8.55C16.4984 8.31 16.9484 8.19 17.4684 8.19C18.5484 8.19 19.2984 8.83 19.7184 10.11C20.2384 9.51 20.8284 9.03 21.4884 8.67C22.1684 8.29 22.8184 8.1 23.4384 8.1C24.1784 8.1 24.8484 8.3 25.4484 8.7C26.0684 9.1 26.3784 9.64 26.3784 10.32C26.3784 10.7 26.2084 11.09 25.8684 11.49C25.5484 11.89 25.2184 12.09 24.8784 12.09C24.6984 12.09 24.5384 12.05 24.3984 11.97C24.2784 11.87 24.1284 11.73 23.9484 11.55C23.7484 11.35 23.5784 11.21 23.4384 11.13C23.2984 11.03 23.1384 10.98 22.9584 10.98C22.6384 10.98 22.3384 11.03 22.0584 11.13C21.7784 11.23 21.5884 11.35 21.4884 11.49C21.1684 11.99 20.9284 12.44 20.7684 12.84C20.6284 13.24 20.5584 13.67 20.5584 14.13C20.5584 14.47 20.5484 14.74 20.5284 14.94L20.4984 16.65C20.4984 16.91 20.5084 17.2 20.5284 17.52C20.5484 17.84 20.5684 18.08 20.5884 18.24C20.6484 18.78 20.6784 19.3 20.6784 19.8ZM29.6923 1.74C30.3923 1.8 31.0023 1.99 31.5223 2.31C32.0423 2.61 32.3023 3.07 32.3023 3.69C32.3023 4.15 32.0823 4.52 31.6423 4.8C31.2223 5.06 30.7123 5.19 30.1123 5.19C29.5323 5.19 29.1323 5.04 28.9123 4.74C28.6923 4.44 28.5823 4.13 28.5823 3.81C28.5823 3.21 28.6423 2.71 28.7623 2.31C28.9023 1.91 29.2123 1.72 29.6923 1.74ZM32.0923 15.03V15.9C32.0923 16.68 32.1123 17.42 32.1523 18.12C32.2123 18.8 32.2823 19.49 32.3623 20.19C32.3423 20.39 32.1923 20.6 31.9123 20.82C31.6323 21.02 31.3823 21.12 31.1623 21.12C30.7823 21.12 30.3923 21.05 29.9923 20.91C29.6123 20.75 29.3823 20.56 29.3023 20.34C29.1823 19.7 29.1223 19.13 29.1223 18.63C29.1223 16.99 29.0723 15.15 28.9723 13.11C28.8923 11.31 28.8523 10.05 28.8523 9.33C28.8523 8.97 29.0323 8.66 29.3923 8.4C29.7523 8.14 30.1323 8.01 30.5323 8.01C31.1123 8.01 31.5123 8.14 31.7323 8.4C31.9723 8.66 32.0923 9.07 32.0923 9.63V15.03ZM35.508 10.77C35.308 10.49 35.168 10.25 35.088 10.05C35.008 9.85 34.968 9.6 34.968 9.3C34.968 8.98 35.098 8.71 35.358 8.49C35.638 8.27 35.988 8.16 36.408 8.16C36.828 8.16 37.248 8.32 37.668 8.64C38.088 8.94 38.428 9.33 38.688 9.81C39.108 9.21 39.678 8.78 40.398 8.52C41.118 8.26 41.898 8.13 42.738 8.13C43.658 8.13 44.508 8.41 45.288 8.97C46.088 9.53 46.718 10.25 47.178 11.13C47.638 12.01 47.868 12.89 47.868 13.77C47.868 14.63 47.778 15.4 47.598 16.08C47.418 16.74 47.098 17.41 46.638 18.09C46.118 18.81 45.418 19.4 44.538 19.86C43.678 20.32 42.648 20.55 41.448 20.55C41.128 20.55 40.738 20.47 40.278 20.31C39.818 20.13 39.438 19.94 39.138 19.74C38.998 21.1 38.928 22.28 38.928 23.28C38.928 23.88 38.958 24.45 39.018 24.99C39.058 25.63 39.078 26.09 39.078 26.37C39.078 26.81 38.928 27.13 38.628 27.33C38.328 27.55 37.998 27.66 37.638 27.66C36.918 27.66 36.438 27.46 36.198 27.06C35.978 26.68 35.868 26.13 35.868 25.41C35.948 23.69 36.048 22.1 36.168 20.64C36.308 18.54 36.378 15.96 36.378 12.9C36.378 12.66 36.278 12.31 36.078 11.85C35.898 11.39 35.708 11.03 35.508 10.77ZM39.258 16.77C39.358 17.15 39.638 17.47 40.098 17.73C40.578 17.97 41.008 18.09 41.388 18.09C42.528 18.09 43.378 17.78 43.938 17.16C44.358 16.72 44.628 16.29 44.748 15.87C44.888 15.45 44.958 14.78 44.958 13.86C44.958 13.14 44.818 12.54 44.538 12.06C44.258 11.56 43.918 11.2 43.518 10.98C43.118 10.74 42.738 10.62 42.378 10.62C41.558 10.62 40.888 10.87 40.368 11.37C39.868 11.85 39.548 12.51 39.408 13.35C39.308 14.01 39.258 15.15 39.258 16.77ZM135.157 13.86C135.277 13.42 135.407 12.82 135.547 12.06C135.747 11.16 135.907 10.48 136.027 10.02C136.147 9.56 136.307 9.17 136.507 8.85C136.727 8.49 136.917 8.25 137.077 8.13C137.257 8.01 137.447 7.95 137.647 7.95C138.687 7.95 139.207 8.35 139.207 9.15C139.207 9.55 139.047 10.3 138.727 11.4C137.667 14.6 136.907 17.08 136.447 18.84C136.247 19.58 135.947 20.15 135.547 20.55C135.147 20.93 134.607 21.12 133.927 21.12C133.587 21.12 133.237 20.96 132.877 20.64C132.537 20.3 132.257 19.89 132.037 19.41L131.707 18.6C131.147 17.18 130.727 16.09 130.447 15.33C130.187 14.55 130.017 13.85 129.937 13.23L129.667 14.19C129.187 15.91 128.687 17.51 128.167 18.99C127.907 19.75 127.587 20.3 127.207 20.64C126.827 20.96 126.337 21.12 125.737 21.12C125.377 21.12 125.057 21.04 124.777 20.88C124.517 20.72 124.267 20.45 124.027 20.07C123.707 19.55 123.397 18.85 123.097 17.97C122.817 17.09 122.407 15.72 121.867 13.86C121.607 13.06 121.367 12.22 121.147 11.34C120.927 10.44 120.817 9.81 120.817 9.45C120.817 9.03 120.927 8.7 121.147 8.46C121.367 8.22 121.687 8.1 122.107 8.1C122.647 8.1 123.027 8.21 123.247 8.43C123.467 8.63 123.667 8.94 123.847 9.36C123.947 10.08 124.167 11.1 124.507 12.42L125.167 15.24C125.207 15.46 125.327 15.92 125.527 16.62L125.767 17.49C126.367 16.23 126.827 15.14 127.147 14.22C127.467 13.28 127.907 11.93 128.467 10.17C128.727 9.75 128.957 9.44 129.157 9.24C129.357 9.02 129.557 8.91 129.757 8.91C130.157 8.91 130.497 9.04 130.777 9.3C131.077 9.54 131.297 9.84 131.437 10.2L131.857 11.49C132.897 14.85 133.617 16.86 134.017 17.52L135.157 13.86ZM145.347 1.98C145.347 2.5 145.337 3.11 145.317 3.81C145.297 4.49 145.277 5.01 145.257 5.37C145.197 6.39 145.167 7.41 145.167 8.43C145.167 9.19 145.197 9.98 145.257 10.8C145.877 9.9 146.547 9.24 147.267 8.82C147.987 8.4 148.857 8.19 149.877 8.19C150.617 8.19 151.307 8.52 151.947 9.18C152.587 9.84 152.997 10.61 153.177 11.49C153.237 12.27 153.267 13.22 153.267 14.34C153.267 15.06 153.307 16 153.387 17.16C153.427 17.6 153.537 18.01 153.717 18.39C153.917 18.77 154.197 18.96 154.557 18.96C154.737 18.96 154.877 18.95 154.977 18.93C155.097 18.91 155.207 18.9 155.307 18.9C155.587 18.9 155.777 18.97 155.877 19.11C155.997 19.25 156.057 19.45 156.057 19.71C156.057 20.19 155.817 20.55 155.337 20.79C154.857 21.03 154.417 21.15 154.017 21.15C152.577 21.15 151.587 20.55 151.047 19.35C150.747 18.67 150.557 17.79 150.477 16.71C150.397 15.61 150.357 14.33 150.357 12.87C150.357 11.43 149.867 10.71 148.887 10.71C148.347 10.71 147.797 11 147.237 11.58C146.697 12.14 146.247 12.89 145.887 13.83C145.527 14.75 145.347 15.71 145.347 16.71L145.377 19.83C145.377 20.27 145.207 20.6 144.867 20.82C144.527 21.02 144.207 21.12 143.907 21.12C143.467 21.12 143.067 20.99 142.707 20.73C142.347 20.45 142.167 20.14 142.167 19.8C142.307 18.3 142.377 15.79 142.377 12.27C142.377 11.63 142.327 9.26 142.227 5.16L142.137 2.4C142.137 1.96 142.337 1.58 142.737 1.26C143.137 0.919999 143.587 0.75 144.087 0.75C144.527 0.75 144.847 0.85 145.047 1.05C145.247 1.25 145.347 1.56 145.347 1.98ZM157.62 14.22C157.62 13.5 157.75 12.83 158.01 12.21C158.27 11.57 158.65 10.91 159.15 10.23C159.65 9.55 160.34 9.02 161.22 8.64C162.1 8.24 163.06 8.04 164.1 8.04C164.9 8.04 165.67 8.21 166.41 8.55C167.17 8.87 167.85 9.27 168.45 9.75C168.53 9.89 168.67 10.15 168.87 10.53C169.07 10.89 169.21 11.22 169.29 11.52C169.39 11.82 169.44 12.13 169.44 12.45C169.44 13.79 168.95 14.69 167.97 15.15C166.99 15.59 165.75 15.81 164.25 15.81C162.75 15.81 161.53 15.71 160.59 15.51C160.63 15.89 160.73 16.27 160.89 16.65C161.05 17.03 161.24 17.32 161.46 17.52C161.86 17.9 162.25 18.15 162.63 18.27C163.03 18.37 163.56 18.42 164.22 18.42C165.22 18.42 166 18.23 166.56 17.85C167.08 17.51 167.48 17.34 167.76 17.34C168.14 17.34 168.43 17.46 168.63 17.7C168.83 17.92 168.93 18.21 168.93 18.57C168.93 19.33 168.44 19.95 167.46 20.43C166.5 20.91 165.41 21.15 164.19 21.15C163.23 21.15 162.28 20.98 161.34 20.64C160.4 20.3 159.65 19.82 159.09 19.2C158.71 18.56 158.37 17.78 158.07 16.86C157.77 15.94 157.62 15.06 157.62 14.22ZM164.22 10.5C163.78 10.5 163.32 10.58 162.84 10.74C162.38 10.88 162.02 11.1 161.76 11.4C161.44 11.74 161.2 12.05 161.04 12.33C160.9 12.61 160.81 12.96 160.77 13.38C160.99 13.38 161.2 13.39 161.4 13.41C161.6 13.43 161.79 13.45 161.97 13.47C162.85 13.55 163.51 13.59 163.95 13.59C164.83 13.59 165.5 13.46 165.96 13.2C166.44 12.94 166.68 12.59 166.68 12.15C166.68 11.73 166.41 11.35 165.87 11.01C165.35 10.67 164.8 10.5 164.22 10.5ZM172.452 10.47C171.932 10.11 171.672 9.73 171.672 9.33C171.672 9.05 171.792 8.79 172.032 8.55C172.272 8.31 172.632 8.19 173.112 8.19C173.672 8.19 174.172 8.34 174.612 8.64C175.072 8.92 175.392 9.33 175.572 9.87C176.032 9.33 176.552 8.9 177.132 8.58C177.732 8.26 178.342 8.1 178.962 8.1C179.702 8.1 180.372 8.3 180.972 8.7C181.572 9.1 181.872 9.64 181.872 10.32C181.872 10.7 181.702 11.09 181.362 11.49C181.042 11.89 180.712 12.09 180.372 12.09C180.192 12.09 180.032 12.05 179.892 11.97C179.772 11.87 179.622 11.73 179.442 11.55C179.242 11.35 179.072 11.21 178.932 11.13C178.792 11.03 178.632 10.98 178.452 10.98C178.132 10.98 177.832 11.03 177.552 11.13C177.272 11.23 177.082 11.35 176.982 11.49C176.662 11.99 176.422 12.44 176.262 12.84C176.122 13.24 176.052 13.67 176.052 14.13C176.052 14.47 176.042 14.74 176.022 14.94L175.992 16.65C175.992 16.91 176.002 17.2 176.022 17.52C176.042 17.84 176.062 18.08 176.082 18.24C176.142 18.78 176.172 19.3 176.172 19.8C176.172 20.14 176.042 20.44 175.782 20.7C175.522 20.96 175.202 21.09 174.822 21.09C174.222 21.09 173.782 20.98 173.502 20.76C173.222 20.52 173.082 20.09 173.082 19.47L173.052 17.55C173.032 17.17 173.022 16.63 173.022 15.93L173.052 13.95C173.092 12.99 173.112 12.21 173.112 11.61C173.112 11.39 173.062 11.19 172.962 11.01C172.882 10.83 172.712 10.65 172.452 10.47ZM183.401 14.64C183.401 13.88 183.541 13.12 183.821 12.36C184.101 11.58 184.471 10.87 184.931 10.23C185.391 9.59 186.121 9.07 187.121 8.67C188.121 8.25 189.011 8.04 189.791 8.04C190.591 8.04 191.401 8.15 192.221 8.37C193.061 8.59 193.641 8.93 193.961 9.39C194.701 10.43 195.071 11.45 195.071 12.45C195.071 12.99 194.951 13.45 194.711 13.83C194.491 14.21 194.171 14.62 193.751 15.06C193.411 15.42 192.871 15.66 192.131 15.78C191.411 15.9 190.691 15.96 189.971 15.96C189.511 15.96 188.951 15.92 188.291 15.84C187.631 15.74 186.991 15.62 186.371 15.48C186.411 15.88 186.511 16.27 186.671 16.65C186.831 17.03 187.021 17.32 187.241 17.52C187.641 17.9 188.051 18.14 188.471 18.24C188.911 18.34 189.471 18.39 190.151 18.39C190.871 18.39 191.541 18.27 192.161 18.03C192.661 17.85 193.071 17.76 193.391 17.76C193.771 17.76 194.061 17.88 194.261 18.12C194.461 18.34 194.561 18.63 194.561 18.99C194.561 19.49 194.271 19.9 193.691 20.22C193.111 20.54 192.441 20.78 191.681 20.94C190.941 21.08 190.341 21.15 189.881 21.15C188.941 21.15 188.031 20.98 187.151 20.64C186.271 20.3 185.541 19.82 184.961 19.2C184.481 18.64 184.101 17.97 183.821 17.19C183.541 16.39 183.401 15.54 183.401 14.64ZM189.941 10.59C189.501 10.59 189.061 10.68 188.621 10.86C188.181 11.02 187.821 11.25 187.541 11.55C187.181 11.93 186.931 12.24 186.791 12.48C186.671 12.7 186.591 13.01 186.551 13.41C187.051 13.57 188.091 13.65 189.671 13.65C190.531 13.65 191.191 13.52 191.651 13.26C192.131 13 192.371 12.66 192.371 12.24C192.371 11.82 192.111 11.44 191.591 11.1C191.071 10.76 190.521 10.59 189.941 10.59Z" fill="#6FB6DE"/>
<path d="M63.503 16.92C63.883 16.92 64.163 17.07 64.343 17.37C64.543 17.65 64.643 17.96 64.643 18.3C64.643 18.72 64.573 19.02 64.433 19.2C64.313 19.36 64.073 19.53 63.713 19.71C62.873 20.11 61.833 20.43 60.593 20.67C59.353 20.91 58.023 21.03 56.603 21.03C54.823 21.03 53.513 20.73 52.673 20.13C51.853 19.53 51.343 18.81 51.143 17.97C50.963 17.11 50.873 15.99 50.873 14.61C50.873 13.13 50.933 11.68 51.053 10.26C51.173 8.82 51.383 6.99 51.683 4.77C51.823 3.81 52.203 3.12 52.823 2.7C53.443 2.26 54.123 2.04 54.863 2.04C55.483 2.04 56.493 2.02 57.893 1.98L60.503 1.95C61.583 1.95 62.363 1.98 62.843 2.04C63.443 2.16 63.883 2.3 64.163 2.46C64.463 2.6 64.613 2.85 64.613 3.21C64.613 3.61 64.473 4 64.193 4.38C63.933 4.76 63.533 4.95 62.993 4.95C62.373 4.95 61.483 4.91 60.323 4.83C59.163 4.75 58.293 4.71 57.713 4.71C57.213 4.71 56.723 4.74 56.243 4.8C55.683 4.84 55.283 4.91 55.043 5.01C54.803 5.11 54.663 5.28 54.623 5.52C54.343 7.58 54.203 9.1 54.203 10.08C54.663 10.14 55.113 10.17 55.553 10.17C56.113 10.17 56.713 10.14 57.353 10.08C57.993 10.02 58.403 9.98 58.583 9.96C59.643 9.86 60.553 9.81 61.313 9.81C61.753 9.81 62.083 9.89 62.303 10.05C62.543 10.21 62.663 10.43 62.663 10.71C62.663 11.15 62.543 11.49 62.303 11.73C62.083 11.97 61.683 12.15 61.103 12.27C60.403 12.41 59.533 12.52 58.493 12.6C57.473 12.68 56.473 12.72 55.493 12.72C55.153 12.72 54.683 12.7 54.083 12.66C54.023 13.88 53.993 15.01 53.993 16.05C53.993 17.47 54.933 18.18 56.813 18.18C57.813 18.18 58.643 18.11 59.303 17.97C59.963 17.83 60.723 17.63 61.583 17.37C62.383 17.07 63.023 16.92 63.503 16.92ZM74.1457 13.29C74.2057 13.13 74.4157 12.55 74.7757 11.55C75.1557 10.55 75.5057 9.79 75.8257 9.27C76.3457 8.45 76.8057 8.04 77.2057 8.04C77.7657 8.04 78.1957 8.15 78.4957 8.37C78.7957 8.57 78.9457 8.86 78.9457 9.24C78.9457 9.42 78.8657 9.67 78.7057 9.99C78.5657 10.31 78.4857 10.5 78.4657 10.56C77.6657 12.32 76.9457 14.21 76.3057 16.23L75.6757 18.57C75.4357 19.33 75.0257 19.95 74.4457 20.43C73.8657 20.89 73.1857 21.12 72.4057 21.12C71.7057 21.12 71.0557 20.8 70.4557 20.16C70.0957 19.6 69.7157 18.89 69.3157 18.03C68.9357 17.17 68.6057 16.33 68.3257 15.51L67.2757 12.36C67.0557 11.74 66.8757 11.21 66.7357 10.77C66.6157 10.33 66.5557 9.93 66.5557 9.57C66.5357 9.15 66.6557 8.81 66.9157 8.55C67.1757 8.29 67.5357 8.16 67.9957 8.16C68.5157 8.16 68.8857 8.27 69.1057 8.49C69.3257 8.69 69.5257 9.01 69.7057 9.45C69.7857 9.91 70.0057 10.85 70.3657 12.27L70.5757 13.11C70.7557 13.79 70.9857 14.48 71.2657 15.18C71.5457 15.88 71.8257 16.55 72.1057 17.19C72.0657 17.09 72.2057 17.42 72.5257 18.18C72.7257 17.6 72.9557 16.89 73.2157 16.05L74.1457 13.29ZM80.7724 14.13C80.7724 12.91 81.0424 11.9 81.5824 11.1C82.1224 10.28 82.8724 9.51 83.8324 8.79C84.1124 8.59 84.5824 8.42 85.2424 8.28C85.9024 8.12 86.4824 8.04 86.9824 8.04C87.5824 8.04 88.2124 8.17 88.8724 8.43C89.5524 8.67 90.1024 8.95 90.5224 9.27C91.2624 9.81 91.7724 10.44 92.0524 11.16C92.3324 11.86 92.4724 12.7 92.4724 13.68C92.4724 14.1 92.2324 14.51 91.7524 14.91C91.2924 15.29 90.7924 15.48 90.2524 15.48L89.1124 15.45C88.5324 15.45 87.7024 15.47 86.6224 15.51L85.9924 15.54C85.5524 15.58 85.2224 15.6 85.0024 15.6C84.6824 15.6 84.2424 15.56 83.6824 15.48C83.7624 16.42 84.1124 17.16 84.7324 17.7C85.3524 18.22 86.0224 18.48 86.7424 18.48C88.0024 18.48 88.8824 18.23 89.3824 17.73C89.8024 17.43 90.0824 17.24 90.2224 17.16C90.3624 17.08 90.5824 17.04 90.8824 17.04C91.2024 17.04 91.4824 17.19 91.7224 17.49C91.9624 17.79 92.0824 18.09 92.0824 18.39C92.0824 18.73 91.8724 19.08 91.4524 19.44C91.0524 19.78 90.5024 20.14 89.8024 20.52C89.4224 20.68 88.9024 20.82 88.2424 20.94C87.5824 21.06 87.0324 21.12 86.5924 21.12C85.8924 21.12 85.1124 20.92 84.2524 20.52C83.3924 20.1 82.7524 19.64 82.3324 19.14C81.9124 18.64 81.5424 17.93 81.2224 17.01C80.9224 16.09 80.7724 15.13 80.7724 14.13ZM86.7424 13.32C88.1624 13.32 89.2024 13.27 89.8624 13.17C89.8224 12.59 89.6424 12.12 89.3224 11.76C89.0024 11.38 88.5624 11.06 88.0024 10.8C87.8224 10.72 87.6624 10.66 87.5224 10.62C87.3824 10.58 87.2224 10.56 87.0424 10.56C86.1224 10.56 85.3424 10.81 84.7024 11.31C84.0824 11.81 83.7124 12.45 83.5924 13.23C84.5924 13.29 85.6424 13.32 86.7424 13.32ZM99.7507 19.8C99.7507 20.14 99.6207 20.44 99.3607 20.7C99.1007 20.96 98.7807 21.09 98.4007 21.09C97.8007 21.09 97.3607 20.98 97.0807 20.76C96.8007 20.52 96.6607 20.09 96.6607 19.47C96.6607 18.73 96.6407 17.76 96.6007 16.56C96.5607 15.56 96.5407 14.72 96.5407 14.04C96.5407 13.72 96.5607 13.3 96.6007 12.78C96.6407 12.3 96.6607 11.94 96.6607 11.7C96.6007 11.32 96.4507 11.01 96.2107 10.77C95.9707 10.51 95.6607 10.38 95.2807 10.38C95.1007 10.38 94.9507 10.3 94.8307 10.14C94.7107 9.96 94.6507 9.78 94.6507 9.6C94.6507 9.14 94.8307 8.79 95.1907 8.55C95.5707 8.31 96.0207 8.19 96.5407 8.19C97.6207 8.19 98.3707 8.83 98.7907 10.11C99.3107 9.51 99.9007 9.03 100.561 8.67C101.241 8.29 101.891 8.1 102.511 8.1C103.251 8.1 103.921 8.3 104.521 8.7C105.141 9.1 105.451 9.64 105.451 10.32C105.451 10.7 105.281 11.09 104.941 11.49C104.621 11.89 104.291 12.09 103.951 12.09C103.771 12.09 103.611 12.05 103.471 11.97C103.351 11.87 103.201 11.73 103.021 11.55C102.821 11.35 102.651 11.21 102.511 11.13C102.371 11.03 102.211 10.98 102.031 10.98C101.711 10.98 101.411 11.03 101.131 11.13C100.851 11.23 100.661 11.35 100.561 11.49C100.241 11.99 100.001 12.44 99.8407 12.84C99.7007 13.24 99.6307 13.67 99.6307 14.13C99.6307 14.47 99.6207 14.74 99.6007 14.94L99.5707 16.65C99.5707 16.91 99.5807 17.2 99.6007 17.52C99.6207 17.84 99.6407 18.08 99.6607 18.24C99.7207 18.78 99.7507 19.3 99.7507 19.8ZM110.505 27.12C109.405 27.12 108.605 26.92 108.105 26.52C107.625 26.14 107.385 25.72 107.385 25.26C107.385 24.56 107.715 24.21 108.375 24.21C108.575 24.21 108.835 24.27 109.155 24.39C109.475 24.53 109.775 24.6 110.055 24.6C110.495 24.6 110.855 24.31 111.135 23.73C111.415 23.15 111.695 22.21 111.975 20.91C111.355 20.19 110.595 19.05 109.695 17.49C108.815 15.93 108.055 14.4 107.415 12.9C106.775 11.38 106.455 10.3 106.455 9.66C106.455 9.16 106.625 8.79 106.965 8.55C107.325 8.31 107.735 8.19 108.195 8.19C108.555 8.19 108.835 8.26 109.035 8.4C109.235 8.52 109.375 8.75 109.455 9.09C109.935 10.79 110.445 12.28 110.985 13.56C111.545 14.84 112.255 16.23 113.115 17.73C113.455 16.95 113.905 15.62 114.465 13.74C115.085 11.64 115.605 10.15 116.025 9.27C116.205 8.91 116.425 8.62 116.685 8.4C116.965 8.18 117.275 8.07 117.615 8.07C117.955 8.07 118.315 8.2 118.695 8.46C119.095 8.7 119.295 8.99 119.295 9.33C119.295 9.53 119.225 9.77 119.085 10.05C118.305 11.85 117.615 13.55 117.015 15.15C116.435 16.73 115.875 18.47 115.335 20.37C115.015 21.43 114.675 22.44 114.315 23.4C113.975 24.36 113.735 24.95 113.595 25.17C113.195 25.73 112.745 26.19 112.245 26.55C111.745 26.93 111.165 27.12 110.505 27.12Z" fill="#353434"/>
</svg>
